ply
format ascii 1.0
comment VCGLIB generated
element vertex 404
property float x
property float y
property float z
property float nx
property float ny
property float nz
element face 804
property list uchar int vertex_indices
end_header
-0.00679598 0.0440665 0.119224 -0.182299 0.661801 0.133607 
-0.0130196 0.0331658 0.117378 -1.24094 -1.07618 6.0066 
-4.62995e-07 0.0443212 0.119544 0.405147 2.55296 2.89435 
0.000244168 0.037245 0.119224 0.386806 -0.296936 6.1581 
0.00990468 0.0352127 0.118325 0.860857 -0.145818 6.0422 
-0.0394226 0.0445796 0.105833 -0.125974 0.238215 -0.0504949 
-0.0441384 0.0398521 0.102009 -2.14959 2.60594 2.80597 
-0.053428 0.0388423 0.0936806 -4.42021 -0.333016 4.41645 
-0.0492006 0.0443212 0.0978873 0.0725614 0.354832 0.131596 
-0.0454554 0.0247153 0.0978873 -3.83695 -1.59728 4.67149 
-0.0410018 0.026648 0.102002 -3.67151 -1.44433 4.84857 
-0.0482507 0.034327 0.0978873 -3.99589 -0.828314 4.74341 
-0.0320298 0.030623 0.109195 -3.10033 -1.1688 5.29004 
-0.0330309 0.0214918 0.105753 -3.16386 -1.99932 5.00513 
-0.0273314 0.021664 0.109071 -2.50684 -2.11172 5.29511 
-0.0245809 -0.00361205 0.0955264 -2.03297 -3.73643 4.50393 
-0.0295452 0.00714872 0.100663 -2.57983 -2.98675 4.81402 
-0.0164412 0.0100627 0.107829 -1.52247 -3.02802 5.19809 
-0.0100663 -0.00831035 0.0958999 -0.939378 -4.06599 4.61357 
0.000146171 -0.00425123 0.100163 -0.0199183 -3.95204 4.83447 
0.00931143 -0.00352448 0.0999499 0.87842 -3.85258 4.83013 
0.0243581 -0.00682185 0.0929179 2.01724 -3.86587 4.4182 
0.0380748 0.0164293 0.100299 3.27223 -2.33054 4.77623 
0.0476938 0.0101345 0.0894001 3.84887 -2.62601 4.11665 
0.0364234 0.0285643 0.105833 3.3607 -1.44634 5.08448 
0.0325947 0.0214501 0.105873 2.96126 -2.01515 5.1267 
0.0424894 0.0308841 0.101988 3.87345 -1.10668 4.79602 
0.0454545 0.0247153 0.0978873 3.89304 -1.56524 4.64149 
0.0513743 0.028093 0.0936806 4.23876 -1.10266 4.46163 
0.039102 0.0225325 0.102009 3.52321 -1.76477 4.87803 
0.0489602 0.0393001 0.0978873 4.20283 -0.426222 4.60887 
0.0441844 0.0397361 0.101988 2.39649 2.57563 2.89462 
0.0388584 0.0361427 0.105753 3.61374 -0.643507 5.06985 
-0.0687663 0.0225987 0.0685451 -5.32368 -1.58885 2.86129 
-0.0656235 0.030729 0.077257 -5.17887 -0.985184 3.36102 
-0.0452542 -0.011566 0.072095 -3.55604 -4.07473 3.06981 
-0.0446327 -0.0169983 0.0645368 -3.48314 -4.45939 2.61226 
-0.017579 -0.0279053 0.0692574 -1.36444 -5.33617 2.92808 
-0.0037698 -0.0307037 0.0686272 -0.295175 -5.46859 2.9025 
0.00900298 -0.0263168 0.0749026 0.752854 -5.21818 3.30358 
0.00998522 -0.0331232 0.0618733 0.827707 -5.62559 2.53968 
0.0241364 -0.0221682 0.0754997 1.89791 -4.87723 3.32331 
0.0359132 -0.0196297 0.0702311 2.74874 -4.70098 3.03228 
0.0538171 -0.0117189 0.0590459 4.17725 -4.01937 2.32675 
0.0557813 7.55535e-05 0.0723723 4.31425 -3.19928 3.09207 
0.0664888 0.0233184 0.0729805 5.17947 -1.51894 3.1625 
0.0681429 0.030207 0.0729805 5.32408 -0.995755 3.12902 
0.0726376 0.029276 0.0639128 5.62594 -1.09479 2.51493 
0.0708737 0.0219333 0.0639128 5.50471 -1.61565 2.49692 
0.0740678 0.0443212 0.0639128 2.85617 2.86742 1.26971 
0.0694852 0.0443212 0.0729805 2.7451 2.8114 1.48775 
0.066588 0.0374925 0.077257 5.2725 -0.551284 3.32438 
0.0737066 0.0367628 0.0639128 5.67751 -0.498394 2.58066 
-0.0847704 0.0443212 0.0248606 -3.10702 2.95854 0.425179 
-0.084357 0.0356704 0.0248606 -6.18629 -0.588395 0.850865 
-0.0850978 0.0355943 0.018623 -6.21062 -0.606313 0.623392 
-0.0838633 0.0269507 0.018623 -6.12868 -1.1674 0.615656 
-0.0802293 0.014664 0.0232406 -5.86166 -2.00608 0.79849 
-0.083133 0.0271022 0.0248606 -6.08233 -1.21399 0.902843 
-0.0624139 -0.0167609 0.0185501 -4.59661 -4.18255 0.647843 
-0.0479624 -0.030396 0.0100053 -3.55505 -5.1268 0.36447 
-0.0400572 -0.0332128 0.0272229 -3.03209 -5.37343 0.97618 
-0.0291588 -0.0366222 0.0356222 -2.1745 -5.68712 1.36738 
-0.0290954 -0.0391511 0.0219124 -2.17314 -5.80797 0.762436 
-0.0166535 -0.0418956 0.0279372 -1.28754 -6.02237 1.0136 
0.00850214 -0.0429273 0.0296854 0.653946 -6.10299 1.10777 
0.0161261 -0.043919 0.0104435 1.22124 -6.11958 0.370607 
0.0216836 -0.0411047 0.0262577 1.62046 -5.9413 0.934564 
0.0389603 -0.0315812 0.037058 2.9956 -5.30574 1.41624 
0.0321513 -0.0371111 0.027232 2.46957 -5.66631 0.932265 
0.0446296 -0.0307866 0.0256575 3.36771 -5.17406 0.904296 
0.0652129 -0.0117152 0.0272246 4.85157 -3.82774 0.934259 
0.0733788 1.7928e-05 0.0256562 5.40803 -2.98568 0.887579 
0.0850969 0.0355943 0.018623 6.22116 -0.524465 0.637994 
0.0822527 0.0358862 0.037058 6.09149 -0.543149 1.34169 
0.0847696 0.0443212 0.0248606 3.10347 2.94268 0.442395 
0.0810601 0.0275318 0.037058 6.00083 -1.21043 1.30782 
0.084356 0.0356704 0.0248606 6.17318 -0.583464 0.927325 
0.0840377 0.0269316 0.0187269 6.09238 -1.23317 0.6383 
-0.0860476 0.0443212 -0.0123738 -3.12869 2.95853 -0.213832 
-0.0855148 0.0443212 -0.018623 -3.11975 2.95879 -0.318897 
-0.0850978 0.0355943 -0.018623 -6.22171 -0.511763 -0.648596 
-0.085628 0.0355399 -0.0123738 -6.23961 -0.541401 -0.367068 
-0.084357 0.0356704 -0.0248606 -6.16171 -0.636773 -0.943247 
-0.0838173 0.0443212 -0.0310265 -3.0817 2.88629 -0.548075 
-0.0847704 0.0443212 -0.0248606 -3.10347 2.94278 -0.442434 
-0.0843331 0.026465 -0.0157749 -6.08997 -1.23326 -0.562101 
-0.0681715 -0.0091452 -0.0217861 -5.03065 -3.60161 -0.787797 
-0.0788818 0.0137188 -0.0302987 -5.78217 -2.05159 -1.08615 
-0.0746978 0.00344059 -0.0282834 -5.4698 -2.84 -1.002 
-0.0570542 -0.021676 -0.0219213 -4.25066 -4.51007 -0.769423 
-0.0474362 -0.0285987 -0.0268152 -3.56576 -5.05192 -0.908776 
-0.0389611 -0.0315812 -0.037058 -2.96521 -5.31674 -1.44714 
-0.0367847 -0.03528 -0.0259681 -2.75219 -5.52133 -0.895694 
-0.0248353 -0.0403665 -0.0231628 -1.84664 -5.90896 -0.870856 
0.0122283 -0.0434677 -0.0226606 0.903239 -6.12512 -0.789123 
-0.000720467 -0.0431618 -0.0300597 -0.0522859 -6.14532 -1.12438 
0.0502402 -0.0287428 -0.0140968 3.67536 -4.99623 -0.460496 
0.056285 -0.0213721 -0.0277912 4.22679 -4.47987 -1.00709 
0.0646837 -0.0110876 -0.0321848 4.80418 -3.81445 -1.14918 
0.0776064 0.0108721 -0.0306893 5.71695 -2.26941 -1.07835 
0.0724994 -0.00129885 -0.0268167 5.34073 -3.09365 -0.899786 
0.0822527 0.0358862 -0.037058 6.08548 -0.615998 -1.33527 
0.084356 0.0356704 -0.0248606 6.16913 -0.645606 -0.88174 
0.085627 0.0355399 -0.0123738 6.21987 -0.657525 -0.409174 
0.0850969 0.0355943 -0.018623 6.19631 -0.673125 -0.653042 
0.0855138 0.0443212 -0.018623 3.11976 2.95886 -0.318851 
-0.0737074 0.0367628 -0.0639128 -5.66777 -0.546212 -2.58355 
-0.066589 0.0374925 -0.077257 -5.22856 -0.512234 -3.38072 
-0.0676228 0.0269197 -0.0730621 -5.27356 -1.20663 -3.08376 
-0.0633672 0.00478844 -0.0644873 -4.88654 -2.84496 -2.60485 
-0.050292 -0.0110409 -0.0665998 -3.89227 -3.96791 -2.71795 
-0.0222927 -0.0286819 -0.0655697 -1.6831 -5.31111 -2.72345 
0.000634398 -0.0308351 -0.0685553 0.0179982 -5.45966 -2.92099 
0.0254291 -0.0297383 -0.0609181 2.0219 -5.31631 -2.52136 
0.0171404 -0.0254625 -0.0737063 1.34872 -5.17792 -3.17434 
0.0302892 -0.018086 -0.0771538 2.39436 -4.63907 -3.37998 
0.0378795 -0.0219463 -0.0639496 2.95012 -4.80712 -2.66146 
0.0463541 -0.0197045 -0.0572012 3.61317 -4.5237 -2.26542 
0.0559898 -0.00222642 -0.0695516 4.32744 -3.40003 -2.86972 
0.0575119 0.00792719 -0.0767398 4.55611 -2.6276 -3.36685 
0.0668429 0.010434 -0.0635424 5.14879 -2.39533 -2.56361 
0.0718645 0.0443212 -0.0685451 2.79596 2.92343 -1.41242 
0.0691465 0.0372305 -0.0729812 5.42586 -0.502509 -3.09294 
-0.05369 0.0443212 -0.0936806 -1.24294 2.69653 -2.16841 
-0.0394226 0.0445796 -0.105833 -0.786097 1.2462 -0.0386355 
-0.0496028 0.0229268 -0.0936806 -4.05127 -1.57701 -4.48614 
-0.045898 0.0323734 -0.0997558 -3.92827 -1.0206 -4.7201 
-0.0287776 0.0269141 -0.110417 -2.75267 -1.60062 -5.28681 
-0.0327308 0.00231062 -0.0954546 -2.73321 -3.29564 -4.516 
-0.0238294 0.0116269 -0.106002 -2.21186 -2.8087 -5.08343 
-0.0103264 0.00723032 -0.10785 -1.04882 -3.22055 -5.19231 
0.0200304 0.00466866 -0.103172 1.78795 -3.37292 -4.92296 
0.0384129 0.0171404 -0.100494 3.31888 -2.14354 -4.81456 
0.0488911 0.0169447 -0.0921909 3.97762 -2.09119 -4.28039 
0.0393511 0.0400688 -0.105783 3.34338 0.232524 -5.15906 
0.0536891 0.0443212 -0.0936806 2.19036 2.89198 -2.22278 
0.0489602 0.0393001 -0.0978873 4.20278 -0.40514 -4.62675 
-0.010798 0.0437574 -0.11875 -0.922068 2.62271 -3.12493 
0.00112862 0.0290466 -0.118203 0.117903 -1.38554 -5.99499 
0.00868244 0.0410542 -0.118948 0.900816 0.329147 -6.03764 
-4.42995e-07 0.0443212 -0.119544 -0.0331175 2.75957 -3.0935 
-0.0233009 0.0432299 0.114993 -1.82818 1.37287 5.43816 
-0.0342411 0.0413823 0.10927 -3.34274 -0.349081 5.27822 
-0.0290647 0.0391143 0.112099 -2.62914 -0.625425 5.58407 
-0.0376754 0.0325112 0.105863 -3.56855 -0.969828 5.0467 
-0.0240225 0.0340578 0.114036 -2.54933 -0.790916 5.61813 
-0.0148373 0.0234517 0.114349 -1.55552 -1.98963 5.70362 
-0.0222064 0.028054 0.113574 -2.23699 -1.58026 5.5669 
-0.0100171 0.019376 0.114036 -1.03062 -2.36015 5.65426 
-0.00422611 0.0314107 0.118307 -0.480598 -1.18677 6.09367 
-0.000393174 0.00760219 0.109008 -0.0486111 -3.23557 5.2611 
-0.0035645 0.0217973 0.115694 -0.301562 -2.1491 5.83131 
0.0189699 0.0101492 0.10747 1.74841 -2.97515 5.10901 
0.0262066 0.0211872 0.10927 2.58235 -2.07799 5.28991 
0.00456298 0.0273913 0.117378 0.419407 -1.59448 6.01158 
0.00985594 0.0193071 0.114036 0.942105 -2.41054 5.64659 
0.0127749 0.0257705 0.115694 1.43067 -1.75414 5.80291 
0.0203757 0.0212769 0.1119 0.160306 1.0206 0.749681 
0.0277789 0.0321051 0.1119 2.70381 -1.20761 5.49025 
0.0200413 0.0288717 0.114349 2.01798 -1.50138 5.7097 
0.0233921 0.0380645 0.114897 2.41809 -0.235741 5.55296 
0.0334121 0.0336181 0.109071 3.2128 -0.9808 5.26706 
0.0394216 0.0440629 0.105833 0.984819 1.67329 0.28283 
0.0267746 0.0431388 0.113512 -0.445753 1.74774 1.67153 
-0.0316979 0.035718 -0.110401 -3.12458 -0.736406 -5.34446 
-0.0246633 0.0404885 -0.114349 -1.22391 1.96419 -4.73742 
-0.0342411 0.0413823 -0.10927 -3.17657 0.298908 -5.27843 
-0.0130344 0.0211995 -0.114191 -1.33653 -2.15828 -5.65404 
-0.0149589 0.0349589 -0.117771 -1.64171 -0.327725 -5.72037 
-0.00112081 0.00309553 -0.106005 -0.0633648 -3.59356 -5.06691 
0.00975961 0.010406 -0.109959 0.928521 -3.01238 -5.30846 
-0.00219337 0.0174859 -0.114036 -0.143793 -2.47785 -5.69448 
0.0122917 0.022673 -0.114897 1.18996 -2.00823 -5.73466 
0.0234182 0.0174858 -0.109205 2.29026 -2.32168 -5.27665 
0.0330867 0.0313957 -0.108985 3.09766 -1.1535 -5.23067 
0.0179529 0.033978 -0.116408 1.73926 -1.04685 -5.84095 
0.0233921 0.0380645 -0.114897 2.61475 -0.389808 -5.60194 
-0.0610696 0.0443212 0.0854954 -2.07807 2.8484 1.99519 
-0.0607718 0.038089 0.0854954 -4.90818 -0.504881 3.83888 
-0.0565037 0.0326182 0.0895678 -4.59389 -0.961188 4.13332 
-0.0691466 0.0372305 0.0729812 -5.41655 -0.514051 3.07691 
-0.0603252 0.0101736 0.0749007 -4.7292 -2.47119 3.18468 
-0.0613744 0.0249338 0.0814103 -4.86433 -1.4344 3.64277 
-0.0513744 0.028093 0.0936806 -4.26633 -1.2984 4.38804 
-0.0537412 0.0141723 0.0860099 -4.25728 -2.20587 3.93329 
-0.041413 0.009021 0.0942838 -3.40268 -2.7013 4.42538 
-0.0484044 -0.00232486 0.079053 -3.88368 -3.36903 3.50136 
-0.0387409 -0.00483219 0.0854954 -3.04706 -3.6923 3.98778 
-0.0338258 -0.0161651 0.0768296 -2.79165 -4.43589 3.37019 
-0.0233703 -0.0144302 0.0854954 -1.87232 -4.36194 4.02162 
-0.0270618 -0.0227979 0.0728587 -2.16462 -4.91025 3.09887 
-0.0102896 -0.0200297 0.0838083 -0.911721 -4.81417 3.80583 
-0.00127406 -0.0175468 0.0878633 -0.0524123 -4.66735 4.09634 
0.0108862 -0.0157857 0.0886077 0.885795 -4.5365 4.14968 
0.0217093 -0.0133991 0.0875614 1.85592 -4.39557 4.00055 
0.0440375 -0.0152993 0.0685546 3.50295 -4.254 2.85268 
0.039723 -0.00709249 0.0827788 3.1819 -3.77739 3.73907 
0.0346702 0.00333428 0.0951568 2.9067 -3.12981 4.51718 
0.0584857 0.0153117 0.080689 4.62028 -2.17043 3.57011 
0.0584362 0.0258621 0.0854954 4.73593 -1.37106 3.84824 
0.0532294 0.0213622 0.0895678 4.26941 -1.78635 4.20868 
0.05989 0.0319166 0.0854954 4.78626 -0.907815 3.91348 
0.0657066 0.0121507 0.0675293 5.0754 -2.35622 2.71533 
0.0641391 0.0443212 0.0814103 2.53623 2.91215 1.8344 
0.0607719 0.038089 0.0854954 4.79935 -0.419 3.98118 
-0.0757385 0.0365543 0.0590459 -5.79292 -0.545042 2.30838 
-0.0764976 0.0284764 0.0539078 -5.82914 -1.11557 1.98319 
-0.0812917 0.0443212 0.0428953 -3.03491 2.91591 0.773661 
-0.0838173 0.0443212 0.0310265 -3.08283 2.93786 0.565356 
-0.0834081 0.0357674 0.0310265 -6.13999 -0.587494 1.1193 
-0.0808948 0.0360258 0.0428953 -6.02607 -0.604511 1.58854 
-0.0780037 0.0443212 0.0539078 -2.96483 2.88379 1.003 
-0.0810602 0.0275318 0.037058 -5.99354 -1.20114 1.34914 
-0.0779731 0.0158232 0.0377035 -5.75327 -1.9792 1.37549 
-0.0726385 0.029276 0.0639128 -5.59242 -1.07182 2.59133 
-0.0740517 0.0176467 0.053328 -5.61634 -1.86181 1.96922 
-0.0594585 -0.00139868 0.0645483 -4.61151 -3.25695 2.63872 
-0.0683718 0.0106316 0.0606482 -5.22353 -2.41825 2.39009 
-0.0742159 0.00208023 0.0269013 -5.47798 -2.85124 0.943383 
-0.06153 -0.0133384 0.0370675 -4.61403 -3.96634 1.38183 
-0.0682841 -0.00720965 0.0287303 -5.07266 -3.50295 1.01875 
-0.0574132 -0.0082626 0.0585316 -4.41373 -3.77522 2.2445 
-0.0690148 0.00150695 0.0467359 -5.1867 -2.99509 1.71826 
-0.0526927 -0.0192701 0.0457859 -3.98968 -4.461 1.74363 
-0.0517888 -0.025205 0.0279576 -3.8756 -4.7836 0.996248 
-0.0396006 -0.0238543 0.0582425 -3.03029 -4.93072 2.30519 
-0.0412824 -0.0284366 0.0437688 -3.12527 -5.14034 1.64172 
-0.0249645 -0.033372 0.052674 -1.9701 -5.52397 2.0402 
-0.0123129 -0.0391908 0.0437342 -0.970421 -5.94668 1.60736 
-0.00406522 -0.0432596 0.0297364 -0.304104 -6.13586 1.08751 
-0.0112921 -0.035855 0.0546901 -0.83619 -5.78007 2.18675 
0.00347183 -0.0386044 0.0488859 0.231359 -5.94158 1.86771 
0.0155538 -0.0371037 0.0485182 1.23785 -5.84122 1.83171 
0.0258493 -0.0297566 0.060654 1.99671 -5.35087 2.43562 
0.0403919 -0.0252059 0.0541143 3.04667 -5.0143 2.11773 
0.0283077 -0.035321 0.0422238 2.15703 -5.6201 1.63023 
0.0563981 -0.0212359 0.0278866 4.16397 -4.53115 1.01182 
0.0475195 -0.0228222 0.0478117 3.69096 -4.70336 1.75743 
0.0628264 -0.00391689 0.0541613 4.80879 -3.35117 2.11545 
0.0687191 -0.00349228 0.037058 5.14646 -3.28707 1.3706 
0.06026 -0.0125178 0.043169 4.52023 -3.99697 1.59824 
0.0753159 0.0173797 0.0493179 5.65499 -1.87468 1.84195 
0.0712865 0.00615697 0.0474076 5.36397 -2.65569 1.75954 
0.0797069 0.0146798 0.0274 5.81434 -2.02207 0.964433 
0.0838163 0.0443212 0.0310265 3.08171 2.88643 0.548104 
0.0781951 0.0281246 0.0485182 5.88197 -1.11791 1.81941 
0.0776222 0.0363612 0.0539079 5.87916 -0.510598 2.06695 
-0.0860476 0.0443212 0.0123738 -3.12871 2.94375 0.197634 
-0.085628 0.0355399 0.0123738 -6.22368 -0.626677 0.388837 
-0.0860528 0.0354964 0 -6.23059 -0.643412 0.00695393 
-0.0863671 0.0443212 -0.00617475 -3.13317 2.93741 -0.0912483 
-0.0826131 0.018148 -0.00773598 -5.98469 -1.81406 -0.238356 
-0.0839241 0.0228706 0.00854733 -6.06657 -1.45947 0.260243 
-0.0780673 0.00574127 -0.00842775 -5.66764 -2.59796 -0.320924 
-0.0717762 -0.00565952 -0.00778095 -5.29001 -3.32696 -0.271227 
-0.0782569 0.00598034 0.00733453 -5.67215 -2.58081 0.25902 
-0.0694807 -0.00916523 0.00875205 -5.09938 -3.58326 0.295813 
-0.0642237 -0.015947 -0.00780647 -4.68397 -4.12107 -0.250344 
-0.0575766 -0.0228813 0.00638088 -4.27838 -4.54558 0.214929 
-0.0406767 -0.0349915 -0.0077905 -3.0679 -5.43903 -0.308655 
-0.0510948 -0.0282981 -0.00702713 -3.78594 -4.95561 -0.279058 
-0.0370511 -0.0369694 0.00842637 -2.75052 -5.59886 0.286305 
-0.0295821 -0.0402138 -0.00801889 -2.22208 -5.83404 -0.28243 
-0.0170498 -0.043768 -0.0101399 -1.25406 -6.10787 -0.374444 
-0.00837194 -0.045295 0.0086091 -0.663384 -6.19488 0.313354 
-0.00287877 -0.0455053 -0.0113202 -0.195573 -6.21458 -0.413986 
-0.0222401 -0.0427199 0.00656815 -1.67229 -6.00885 0.246841 
0.00382077 -0.0455678 0.00946164 0.306966 -6.22481 0.333806 
0.0255513 -0.0410915 -0.0151275 1.88771 -5.93671 -0.526849 
0.0131561 -0.0446186 -0.00731236 0.973548 -6.16168 -0.252354 
0.025177 -0.0418301 0.00286018 1.89969 -5.95696 0.0983669 
0.0368148 -0.0371322 0.00857725 2.75883 -5.5775 0.300945 
0.0517486 -0.0277822 0.00792138 3.78257 -4.95354 0.249142 
0.0365438 -0.0371859 -0.00998119 2.74673 -5.5917 -0.308048 
0.0611467 -0.0191344 -0.00986914 4.52232 -4.29537 -0.325276 
0.0608855 -0.019357 0.0102534 4.49631 -4.32657 0.337623 
0.069493 -0.00915026 -0.00841338 5.10519 -3.57622 -0.301439 
0.0693786 -0.00943762 0.00733802 5.09783 -3.5875 0.245343 
0.0782564 0.005981 -0.00733519 5.67249 -2.57202 -0.258952 
0.0780666 0.00574126 0.0084251 5.67342 -2.57311 0.284904 
0.0834979 0.021739 -0.0116173 6.0342 -1.5299 -0.405487 
0.0839737 0.0223865 0.00274639 6.05623 -1.51225 0.105276 
0.0860467 0.0443212 0.0123738 3.12869 2.95865 0.214063 
0.085627 0.0355399 0.0123738 6.23281 -0.580035 0.407262 
0.0859457 0.0355073 0.00617475 6.23372 -0.626395 0.16222 
0.0859457 0.0355073 -0.00617474 6.22134 -0.689449 -0.191899 
-0.0822536 0.0358862 -0.037058 -6.08852 -0.589424 -1.31659 
-0.0740687 0.0443212 -0.0639128 -2.85142 2.86591 -1.27857 
-0.0797352 0.0443212 -0.0485182 -2.99652 2.87018 -0.894878 
-0.0776232 0.0363612 -0.0539079 -5.88171 -0.522383 -2.05312 
-0.0738639 0.0247134 -0.0589867 -5.61526 -1.43199 -2.3084 
-0.0794502 0.0248965 -0.0423949 -5.88612 -1.35384 -1.53091 
-0.0718295 0.0124012 -0.0537583 -5.44992 -2.24022 -2.04261 
-0.0682575 -0.000416426 -0.0459199 -5.15384 -3.06667 -1.672 
-0.0588764 -0.00936731 -0.0536269 -4.47303 -3.80007 -2.07184 
-0.0610287 -0.0139169 -0.0370997 -4.57934 -4.01509 -1.338 
-0.0491311 -0.0234797 -0.0425861 -3.72738 -4.71346 -1.61952 
-0.0387999 -0.0242352 -0.0590296 -3.02151 -4.88127 -2.33488 
-0.0264834 -0.0353061 -0.0452947 -2.02288 -5.61529 -1.71136 
-0.0113112 -0.0342061 -0.0588427 -0.954398 -5.66651 -2.42525 
-0.0115269 -0.0385232 -0.0463512 -0.903597 -5.94123 -1.68857 
-0.0122033 -0.0422574 -0.0303942 -0.954396 -6.0574 -1.12762 
-0.000944651 -0.0376402 -0.0524228 -0.0699332 -5.90786 -1.97716 
0.0122848 -0.0355897 -0.0554599 0.985992 -5.73133 -2.20454 
0.0279542 -0.0334416 -0.0492708 2.14953 -5.54236 -1.83535 
0.0362663 -0.0352418 -0.0275868 2.76104 -5.49088 -1.02796 
0.0244307 -0.0394183 -0.0299515 1.84501 -5.86648 -1.11932 
0.0119945 -0.0407542 -0.0382596 0.917861 -5.98967 -1.43294 
0.037584 -0.0288989 -0.0485182 2.94862 -5.19232 -1.83916 
0.0488164 -0.0251385 -0.0375722 3.6556 -4.84652 -1.4142 
0.0567356 -0.00824385 -0.059746 4.31401 -3.80899 -2.39884 
0.0592271 -0.0117258 -0.0478445 4.4942 -3.9527 -1.74105 
0.0695362 0.00068178 -0.0436126 5.19066 -3.09118 -1.57624 
0.0648504 -0.00079998 -0.0539085 4.95779 -3.19534 -2.07817 
0.0817595 0.0226374 -0.0286165 5.9946 -1.45561 -0.970514 
0.0719891 0.0093495 -0.0498375 5.47264 -2.35186 -1.85913 
0.0761092 0.0443212 -0.0590459 2.9148 2.92502 -1.14826 
0.0737066 0.0367628 -0.0639128 5.68836 -0.59444 -2.54845 
0.0734498 0.0242583 -0.0597071 5.6082 -1.45951 -2.30458 
0.0792446 0.0244971 -0.0424074 5.87283 -1.39456 -1.58539 
0.0826558 0.0443212 -0.037058 3.06314 2.91725 -0.653902 
0.0797351 0.0443212 -0.0485182 3.0041 2.88436 -0.878805 
0.0776222 0.0363612 -0.0539085 5.89488 -0.639625 -2.00103 
-0.0610696 0.0443212 -0.0854954 -2.48388 2.74912 -1.87894 
-0.0573359 0.0384416 -0.0895678 -4.62505 -0.497164 -4.17431 
-0.0577232 0.0314779 -0.0880393 -4.58323 -0.969957 -4.0976 
-0.0635705 0.0177294 -0.075221 -4.96852 -1.94217 -3.17877 
-0.0461873 -0.000839763 -0.0827868 -3.65643 -3.27301 -3.81324 
-0.03922 0.0139716 -0.0984756 -3.35729 -2.36507 -4.65812 
-0.0541937 0.0164779 -0.0866408 -4.28505 -2.07046 -3.9907 
-0.0541951 0.00542106 -0.0792759 -4.30511 -2.87751 -3.44558 
-0.0403412 -0.00925891 -0.0799326 -3.13711 -4.00686 -3.55949 
-0.0171768 -0.00646739 -0.0959214 -1.3829 -3.92088 -4.59505 
-0.0258309 -0.0119911 -0.0871724 -2.15913 -4.20613 -4.02043 
-0.0301131 -0.0214654 -0.0722895 -2.43466 -4.76846 -3.16556 
-0.0127923 -0.0205135 -0.082746 -1.04143 -4.80988 -3.73406 
0.00129884 -0.0216493 -0.0829782 0.121346 -4.89326 -3.79266 
0.00352408 -0.00943812 -0.0959011 0.271244 -4.15362 -4.58067 
0.0166442 -0.0173598 -0.0851886 1.35423 -4.59694 -3.9492 
0.0199992 -0.00684537 -0.0943356 1.59984 -3.92015 -4.57391 
0.0341666 0.00458786 -0.0963868 2.87745 -3.08406 -4.555 
0.0407713 -0.0098011 -0.0790936 3.2742 -3.97403 -3.44841 
0.0302036 -0.00675129 -0.0898041 2.46831 -3.83983 -4.21888 
0.048223 0.00132831 -0.0826657 3.80065 -3.12496 -3.79044 
0.0615439 0.0183359 -0.0784887 4.82083 -1.92431 -3.42324 
0.0486259 0.0310348 -0.0971255 4.0634 -1.07603 -4.60399 
0.0592483 0.0284252 -0.0854741 4.75339 -1.08068 -3.87284 
0.0638266 0.0377763 -0.0814103 4.9795 -0.732591 -3.68782 
0.0679329 0.0278645 -0.0729152 5.28547 -1.21321 -3.06158 
0.0573349 0.0384416 -0.0895678 4.63637 -0.517701 -4.16516 
0.041774 0.0443212 0 0 6.28319 0 
0.041774 0.0443212 0.0203894 0 6.28319 0 
0.0855138 0.0443212 0.018623 3.11975 2.95883 0.318904 
0.0721658 0.0443212 0.0142154 0 6.28319 0 
0.041774 0.0443212 0.0611681 -0.0179678 6.278 0.129511 
-4.52995e-07 0.0443212 0 0 6.28319 0 
-4.52995e-07 0.0443212 0.0203894 0 6.28319 0 
-4.52995e-07 0.0443212 0.0611681 -0.083282 6.28004 0.0815383 
-0.0417751 0.0443212 0 0 6.28319 0 
-0.0417751 0.0443212 0.0203894 0 6.28319 0 
-0.0417751 0.0443212 0.0611681 0.0908128 6.27063 0.249144 
-0.0863671 0.0443212 0.00617474 -3.12979 2.90038 0.111834 
-0.0855148 0.0443212 0.018623 -3.11975 2.9588 0.318895 
0.041774 0.0443212 -0.0203893 0 6.28319 0 
0.0716393 0.0443212 -0.0126538 0 6.28319 0 
-4.52995e-07 0.0443212 -0.101947 -0.131588 6.27828 0.00950764 
-4.52995e-07 0.0443212 -0.061168 0.00119832 6.28319 -0.00117145 
0.0443707 0.0442569 -0.102002 1.9202 2.93097 -2.4786 
0.041774 0.0443212 -0.061168 -0.00149614 6.28318 -0.00312187 
-4.52995e-07 0.0443212 -0.0203893 0 6.28319 0 
-0.0417751 0.0443212 -0.061168 -0.0935729 6.27031 -0.257167 
-0.0417751 0.0443212 -0.0203893 0 6.28319 0 
0.0863671 0.0443212 0.00617475 3.13346 2.94015 0.0808458 
0.0863671 0.0443212 -0.00617474 3.13346 2.94014 -0.0808588 
0.0860467 0.0443212 -0.0123738 3.12868 2.95861 -0.21407 
-4.52995e-07 0.0443212 0.101947 -0.195672 6.26326 -0.00483856 
-0.0555127 0.0443212 -0.06056 0.0958541 6.27717 -0.117468 
-0.00934839 0.0443212 -0.108018 -0.294274 6.23016 0.388813 
0.0631546 0.0443212 -0.054606 0 6.28319 0 
0.0744094 0.0443212 -0.0286464 0 6.28319 0 
0.0208301 0.0436169 0.116045 1.30152 2.69343 2.92804 
0.0169718 0.0388604 0.11716 1.16878 0.0397697 5.98075 
-0.0300563 0.045613 0.1119 -0.673089 1.79745 0.635787 
0.0557507 0.0443212 0.0839101 0 6.28319 0 
-0.0673359 0.0443212 -0.0520438 0 6.28319 0 
-0.0588598 0.0443212 -0.068592 0 6.28319 0 
-0.0511372 0.0443212 -0.083669 2.44936 5.05863 0.361142 
-0.0441383 0.0398521 -0.102009 -2.30251 2.61053 -2.87696 
-0.0218351 0.0443212 -0.110346 -0.595541 5.15856 -1.09954 
0.0208301 0.0436169 -0.116045 1.26327 2.78748 -3.35138 
-0.0669154 0.0443212 -0.077257 -2.63906 2.86224 -1.67224 
-0.0740687 0.0443212 0.0639128 -2.82819 2.82513 1.32655 
-0.0694854 0.0443212 0.0729812 -2.71128 2.86533 1.55386 
-0.0162581 0.0395693 0.117378 -1.49509 0.215103 5.94475 
0.0069694 0.0443242 0.11645 0.613705 4.01433 2.8497 
0.034711 0.0402184 0.109071 2.84217 1.09014 4.94775 
0.0283901 0.0443224 0.107524 0.949329 5.43802 -0.0744305 
0.0536891 0.0443212 0.0936806 1.34596 2.65662 2.16405 
0.0797351 0.0443212 0.0485182 2.9965 2.86985 0.894864 
0.0798523 0.0443212 0.0395962 0 6.28319 0 
0.0669146 0.0443212 -0.077257 2.64512 2.92892 -1.67855 
0.0610687 0.0443212 -0.0854954 2.44729 2.91618 -1.95366 
0.0847696 0.0443212 -0.0248606 3.10158 2.9405 -0.453115 
3 1 0 394 
3 150 3 0 
3 150 0 1 
3 2 0 3 
3 155 3 150 
3 3 155 4 
3 143 5 145 
3 5 6 145 
3 8 7 11 
3 6 8 11 
3 184 9 11 
3 184 11 7 
3 9 10 6 
3 9 6 11 
3 10 145 6 
3 12 145 13 
3 145 10 13 
3 9 185 186 
3 10 9 186 
3 10 186 13 
3 186 16 13 
3 16 14 13 
3 14 16 17 
3 186 15 16 
3 15 17 16 
3 17 15 18 
3 193 19 18 
3 19 151 18 
3 18 151 17 
3 151 19 20 
3 19 193 194 
3 19 194 20 
3 21 20 194 
3 21 153 20 
3 20 153 151 
3 153 21 198 
3 153 198 22 
3 153 22 154 
3 154 22 25 
3 22 198 23 
3 27 22 23 
3 27 29 22 
3 24 159 154 
3 24 154 25 
3 29 24 25 
3 29 25 22 
3 24 29 26 
3 162 24 32 
3 24 26 32 
3 27 28 30 
3 29 27 26 
3 26 27 30 
3 398 31 30 
3 398 30 28 
3 30 31 26 
3 163 396 162 
3 163 162 32 
3 31 163 32 
3 31 32 26 
3 181 215 34 
3 392 212 206 
3 393 392 206 
3 393 206 181 
3 181 206 215 
3 218 33 216 
3 216 33 215 
3 182 183 33 
3 33 183 34 
3 218 182 33 
3 33 34 215 
3 182 218 217 
3 222 35 217 
3 35 187 217 
3 217 187 182 
3 35 222 36 
3 228 191 226 
3 226 191 36 
3 191 189 35 
3 191 35 36 
3 191 37 192 
3 191 228 37 
3 37 228 231 
3 38 37 231 
3 38 192 37 
3 38 40 39 
3 234 41 40 
3 41 39 40 
3 41 234 42 
3 234 235 42 
3 42 235 196 
3 43 239 44 
3 196 43 44 
3 203 44 239 
3 203 48 45 
3 45 48 47 
3 45 47 46 
3 52 46 47 
3 49 50 51 
3 49 51 52 
3 52 51 46 
3 209 53 54 
3 209 54 210 
3 210 54 58 
3 210 58 213 
3 363 248 249 
3 363 249 55 
3 55 249 253 
3 55 253 56 
3 53 363 55 
3 53 55 54 
3 54 55 56 
3 54 56 58 
3 256 57 253 
3 253 57 56 
3 57 58 56 
3 57 214 213 
3 57 213 58 
3 214 57 219 
3 57 256 219 
3 219 256 257 
3 219 257 221 
3 257 59 221 
3 59 220 221 
3 220 59 225 
3 59 259 225 
3 225 259 60 
3 262 63 61 
3 262 61 60 
3 61 225 60 
3 63 62 61 
3 62 63 64 
3 63 262 267 
3 63 267 64 
3 268 230 265 
3 265 64 267 
3 265 230 64 
3 65 268 66 
3 230 268 65 
3 65 66 67 
3 272 69 67 
3 272 67 271 
3 271 67 66 
3 69 70 68 
3 69 272 70 
3 70 272 273 
3 276 237 273 
3 273 237 70 
3 71 72 240 
3 276 278 71 
3 71 278 72 
3 237 276 71 
3 280 244 72 
3 280 72 278 
3 244 78 76 
3 244 280 282 
3 244 282 78 
3 283 353 73 
3 283 73 284 
3 353 75 77 
3 353 77 73 
3 284 73 78 
3 73 77 78 
3 75 245 74 
3 75 74 77 
3 77 74 76 
3 77 76 78 
3 79 80 81 
3 79 81 82 
3 80 85 83 
3 80 83 81 
3 82 81 86 
3 81 83 86 
3 85 84 287 
3 85 287 83 
3 83 287 292 
3 83 292 86 
3 88 86 292 
3 88 254 252 
3 88 252 86 
3 254 88 89 
3 254 89 87 
3 254 87 255 
3 89 294 87 
3 296 90 87 
3 296 87 294 
3 90 258 87 
3 87 258 255 
3 258 90 261 
3 261 90 91 
3 90 296 297 
3 90 297 91 
3 92 93 91 
3 93 263 260 
3 93 260 261 
3 93 261 91 
3 263 93 94 
3 263 94 264 
3 94 302 264 
3 93 299 94 
3 94 299 302 
3 96 266 302 
3 302 266 264 
3 266 95 270 
3 266 96 95 
3 96 308 95 
3 307 95 308 
3 269 270 95 
3 306 274 269 
3 306 269 307 
3 307 269 95 
3 274 306 97 
3 306 310 97 
3 98 97 310 
3 275 97 98 
3 275 99 277 
3 275 98 99 
3 277 99 101 
3 100 279 101 
3 101 279 277 
3 279 100 281 
3 100 315 281 
3 321 403 103 
3 321 103 102 
3 102 103 315 
3 106 375 104 
3 106 104 105 
3 105 104 281 
3 403 106 105 
3 403 105 103 
3 103 105 281 
3 103 281 315 
3 107 109 291 
3 288 391 108 
3 288 108 107 
3 107 108 109 
3 327 293 291 
3 327 291 109 
3 293 327 110 
3 110 327 331 
3 328 111 331 
3 111 110 331 
3 111 295 110 
3 111 332 298 
3 335 298 332 
3 335 112 298 
3 335 336 112 
3 337 113 336 
3 113 112 336 
3 303 300 113 
3 113 300 112 
3 303 113 304 
3 113 115 304 
3 113 337 115 
3 116 114 115 
3 115 114 304 
3 114 116 117 
3 117 116 342 
3 119 311 118 
3 119 118 342 
3 342 118 117 
3 311 119 314 
3 119 342 344 
3 119 344 120 
3 345 121 120 
3 120 121 119 
3 121 314 119 
3 121 349 319 
3 121 345 349 
3 401 122 123 
3 122 317 318 
3 318 319 349 
3 122 318 123 
3 123 318 349 
3 125 167 165 
3 128 127 165 
3 165 127 388 
3 126 127 329 
3 127 128 329 
3 329 130 129 
3 130 128 168 
3 131 130 168 
3 130 333 129 
3 333 130 131 
3 170 338 333 
3 170 333 131 
3 171 340 338 
3 171 338 170 
3 340 171 132 
3 340 341 343 
3 340 132 341 
3 174 341 132 
3 341 133 134 
3 341 174 133 
3 175 133 174 
3 134 133 346 
3 346 175 135 
3 133 175 346 
3 137 136 346 
3 368 136 137 
3 368 137 135 
3 135 137 346 
3 141 139 169 
3 141 140 139 
3 176 139 140 
3 383 5 143 
3 142 143 144 
3 12 144 145 
3 12 146 142 
3 12 142 144 
3 145 144 143 
3 146 1 394 
3 146 394 142 
3 1 146 148 
3 14 12 13 
3 14 148 146 
3 14 146 12 
3 1 148 147 
3 148 14 17 
3 148 17 147 
3 17 149 147 
3 149 150 147 
3 147 150 1 
3 150 149 152 
3 149 17 151 
3 150 152 155 
3 149 151 152 
3 153 156 151 
3 156 152 151 
3 156 155 152 
3 155 156 157 
3 154 158 153 
3 158 156 153 
3 155 157 4 
3 4 157 160 
3 156 158 154 
3 156 154 157 
3 157 154 160 
3 159 160 154 
3 382 4 160 
3 159 382 160 
3 382 159 161 
3 159 24 162 
3 159 162 161 
3 396 161 162 
3 161 396 164 
3 169 165 166 
3 125 166 167 
3 167 166 165 
3 128 165 169 
3 139 168 169 
3 128 169 168 
3 139 172 168 
3 172 170 131 
3 131 168 172 
3 139 171 172 
3 170 172 171 
3 139 176 173 
3 139 173 171 
3 132 171 174 
3 171 173 174 
3 175 174 176 
3 174 173 176 
3 175 176 177 
3 177 176 390 
3 8 178 7 
3 178 179 7 
3 7 179 180 
3 178 393 181 
3 178 181 179 
3 179 181 34 
3 179 34 180 
3 182 185 183 
3 183 180 34 
3 185 9 184 
3 185 184 180 
3 180 184 7 
3 185 180 183 
3 187 185 182 
3 187 186 185 
3 186 187 188 
3 186 188 15 
3 187 35 188 
3 188 35 189 
3 191 190 189 
3 189 190 188 
3 190 15 188 
3 15 190 192 
3 15 192 18 
3 190 191 192 
3 38 193 192 
3 192 193 18 
3 193 38 39 
3 193 39 194 
3 41 195 194 
3 41 194 39 
3 21 194 195 
3 21 195 197 
3 41 42 197 
3 195 41 197 
3 196 197 42 
3 197 198 21 
3 198 197 23 
3 197 196 44 
3 197 44 23 
3 203 199 44 
3 199 23 44 
3 201 27 23 
3 199 201 23 
3 27 201 28 
3 201 199 200 
3 201 200 28 
3 28 200 202 
3 199 203 45 
3 199 45 200 
3 200 45 46 
3 200 46 202 
3 50 204 51 
3 204 205 51 
3 51 202 46 
3 51 205 202 
3 205 398 28 
3 205 28 202 
3 204 398 205 
3 212 211 206 
3 206 207 215 
3 206 211 207 
3 208 209 210 
3 208 210 211 
3 211 210 213 
3 212 208 211 
3 211 213 207 
3 214 216 207 
3 214 207 213 
3 216 215 207 
3 216 223 218 
3 218 223 217 
3 214 219 223 
3 223 219 221 
3 216 214 223 
3 221 220 223 
3 222 217 223 
3 224 222 220 
3 220 222 223 
3 222 224 36 
3 36 224 226 
3 224 227 226 
3 224 220 225 
3 224 225 227 
3 62 227 61 
3 62 228 227 
3 61 227 225 
3 228 226 227 
3 228 62 64 
3 228 64 229 
3 228 229 231 
3 230 232 229 
3 230 229 64 
3 232 38 231 
3 232 231 229 
3 38 232 40 
3 40 232 233 
3 232 230 65 
3 65 67 233 
3 232 65 233 
3 69 236 67 
3 67 236 233 
3 234 40 233 
3 236 234 233 
3 234 236 235 
3 236 69 68 
3 68 70 238 
3 236 68 235 
3 235 68 238 
3 237 241 238 
3 237 238 70 
3 43 196 238 
3 238 196 235 
3 241 43 238 
3 43 241 239 
3 241 237 71 
3 241 71 240 
3 239 241 240 
3 244 242 243 
3 244 243 72 
3 72 243 240 
3 243 239 240 
3 242 203 243 
3 243 203 239 
3 203 242 48 
3 48 242 246 
3 48 246 47 
3 242 244 76 
3 242 76 246 
3 245 399 74 
3 399 247 74 
3 74 247 246 
3 74 246 76 
3 399 49 52 
3 399 52 247 
3 247 52 47 
3 247 47 246 
3 248 362 250 
3 248 250 249 
3 249 250 253 
3 251 79 82 
3 251 82 250 
3 250 82 86 
3 362 251 250 
3 250 86 253 
3 254 256 252 
3 252 253 86 
3 256 253 252 
3 256 255 257 
3 256 254 255 
3 259 59 257 
3 259 257 258 
3 258 257 255 
3 259 258 261 
3 259 261 60 
3 260 60 261 
3 263 262 260 
3 260 262 60 
3 262 263 267 
3 267 263 264 
3 266 265 264 
3 266 268 265 
3 265 267 264 
3 268 270 66 
3 266 270 268 
3 274 271 269 
3 269 271 270 
3 274 272 271 
3 271 66 270 
3 272 274 97 
3 272 97 273 
3 275 276 273 
3 275 273 97 
3 276 275 278 
3 275 277 278 
3 279 278 277 
3 279 280 278 
3 280 279 282 
3 279 281 282 
3 375 374 286 
3 375 286 104 
3 374 373 286 
3 104 286 282 
3 104 282 281 
3 373 283 284 
3 373 284 285 
3 285 284 78 
3 285 78 282 
3 373 285 286 
3 286 285 282 
3 84 289 287 
3 289 290 287 
3 287 290 292 
3 289 288 107 
3 289 107 290 
3 290 107 291 
3 290 291 292 
3 293 292 291 
3 293 88 292 
3 88 294 89 
3 88 293 294 
3 293 110 294 
3 295 294 110 
3 295 296 294 
3 296 295 297 
3 295 111 297 
3 297 111 298 
3 112 299 298 
3 299 93 92 
3 92 91 297 
3 299 92 298 
3 298 92 297 
3 299 301 302 
3 299 112 300 
3 299 300 301 
3 303 301 300 
3 303 96 302 
3 303 302 301 
3 96 303 308 
3 303 304 308 
3 114 305 304 
3 305 306 307 
3 305 307 308 
3 305 308 304 
3 306 305 309 
3 306 309 310 
3 309 118 310 
3 305 114 117 
3 305 117 309 
3 309 117 118 
3 311 312 118 
3 312 98 310 
3 312 310 118 
3 98 312 99 
3 99 313 101 
3 99 312 314 
3 99 314 313 
3 312 311 314 
3 121 316 314 
3 100 101 313 
3 316 100 313 
3 316 313 314 
3 100 320 315 
3 100 316 320 
3 316 121 319 
3 316 319 320 
3 317 323 318 
3 317 322 323 
3 318 323 319 
3 323 320 319 
3 102 315 320 
3 322 321 102 
3 322 102 323 
3 323 102 320 
3 391 324 325 
3 391 325 108 
3 108 325 326 
3 108 326 109 
3 325 124 127 
3 324 124 325 
3 126 330 326 
3 126 326 325 
3 126 325 127 
3 330 327 326 
3 326 327 109 
3 327 330 331 
3 330 126 329 
3 129 328 329 
3 329 328 330 
3 328 331 330 
3 111 328 332 
3 328 129 332 
3 332 129 334 
3 333 334 129 
3 334 335 332 
3 335 334 336 
3 334 333 336 
3 338 336 333 
3 338 337 336 
3 337 339 115 
3 337 338 339 
3 340 339 338 
3 116 115 339 
3 116 339 343 
3 116 343 342 
3 339 340 343 
3 344 341 134 
3 342 341 344 
3 345 120 134 
3 134 120 344 
3 345 347 349 
3 347 134 346 
3 345 134 347 
3 136 402 350 
3 136 350 346 
3 350 347 346 
3 401 123 348 
3 348 123 349 
3 402 401 348 
3 402 348 350 
3 350 348 349 
3 350 349 347 
3 373 351 352 
3 352 355 353 
3 351 356 357 
3 352 351 357 
3 357 358 352 
3 352 358 355 
3 358 376 355 
3 355 376 31 
3 356 359 360 
3 357 356 360 
3 360 361 357 
3 357 361 358 
3 361 6 358 
3 358 6 376 
3 359 362 363 
3 360 359 363 
3 364 373 365 
3 351 373 364 
3 366 367 368 
3 368 367 369 
3 367 370 369 
3 369 370 364 
3 370 351 364 
3 356 351 370 
3 388 371 366 
3 366 371 367 
3 371 372 367 
3 367 372 370 
3 372 356 370 
3 359 356 372 
3 371 80 372 
3 80 359 372 
3 362 359 80 
3 365 373 374 
3 374 375 365 
3 365 106 364 
3 365 375 106 
3 354 352 353 
3 354 353 373 
3 373 352 354 
3 283 373 353 
3 31 376 397 
3 376 6 2 
3 361 178 6 
3 361 212 178 
3 212 361 53 
3 360 363 53 
3 361 360 53 
3 371 377 80 
3 388 366 378 
3 366 368 141 
3 368 390 141 
3 369 364 379 
3 369 379 122 
3 364 380 379 
3 122 136 369 
3 49 399 355 
3 142 383 143 
3 355 384 49 
3 80 377 385 
3 385 377 386 
3 386 377 387 
3 387 377 388 
3 388 377 371 
3 80 385 289 
3 391 289 385 
3 385 386 391 
3 324 391 386 
3 386 387 324 
3 387 124 324 
3 378 366 141 
3 138 389 378 
3 378 389 388 
3 125 389 166 
3 177 390 368 
3 176 140 390 
3 140 141 390 
3 391 288 289 
3 289 84 85 
3 289 85 80 
3 79 251 80 
3 80 251 362 
3 362 248 363 
3 209 208 53 
3 208 212 53 
3 392 393 212 
3 393 178 212 
3 178 8 6 
3 6 5 383 
3 2 6 383 
3 142 2 383 
3 0 2 394 
3 2 142 394 
3 3 395 2 
3 395 376 2 
3 381 376 395 
3 397 376 381 
3 395 3 4 
3 395 4 382 
3 395 382 381 
3 381 382 161 
3 381 161 397 
3 164 397 161 
3 396 397 164 
3 397 396 163 
3 397 163 31 
3 384 355 398 
3 398 355 31 
3 384 50 49 
3 204 50 384 
3 355 400 353 
3 400 355 399 
3 400 399 245 
3 400 245 353 
3 401 136 122 
3 402 136 401 
3 379 317 122 
3 317 380 321 
3 379 380 317 
3 322 317 321 
3 321 106 403 
3 398 204 384 
3 368 369 136 
3 75 353 245 
3 125 165 388 
3 141 169 138 
3 138 378 141 
3 389 138 169 
3 388 127 124 
3 169 166 389 
3 124 387 388 
3 388 389 125 
3 128 130 329 
3 341 342 343 
3 106 321 380 
3 380 364 106 
3 135 175 177 
3 135 177 368 
