ply
format ascii 1.0
comment VCGLIB generated
element vertex 42
property float x
property float y
property float z
property float nx
property float ny
property float nz
element face 80
property list uchar int vertex_indices
end_header
0.712682 -0.078851 -0.243495 0.841577 0.795275 -0.322139 
-0.17338 0.324584 -0.217765 -0.259957 0.915091 -0.188868 
-0.0109248 0.47393 0.28223 -0.322143 1.134 0.234049 
-0.17338 0.324584 0.782225 0.0992954 0.915087 0.305594 
0.940133 -0.52607 -0.0267827 0.877697 0.320421 -0.259948 
0.251944 -0.000332832 -0.526782 0.0240007 0.320428 -0.915083 
0.576861 -0.52607 -0.526787 0.77842 0.121841 -0.565552 
-0.287313 -0.0788506 -0.568419 -0.368452 0.150987 -1.13398 
0.712682 -0.078851 0.807955 0.964625 0.150987 0.700837 
0.940133 -0.52607 0.591243 0.778426 0.121842 0.565557 
0.677265 -1.05181 -0.217767 0.39662 -0.641753 -0.609483 
0.514805 -1.37672 0.28223 0.259954 -0.915078 0.188866 
0.151531 -1.37672 0.782225 0.259957 -0.915091 0.188868 
0.265463 -0.97329 1.13288 0.491499 -0.795274 0.755284 
-0.436247 -1.37672 0.591241 -0.196449 -0.832167 0.604597 
-0.734532 -0.97329 0.807955 -0.566438 -0.795272 0.700834 
-0.436247 -1.37672 -0.0267814 -0.321321 -0.915093 0 
0.265463 -0.97329 -0.568419 0.0463083 -0.795273 -0.899931 
0.151531 -1.37672 -0.217765 0.259957 -0.915091 -0.188868 
-0.0109248 -1.52607 0.28223 0.322143 -1.134 -0.234049 
0.677265 -1.05181 0.782227 0.862878 -0.320426 0.305596 
0.576861 -0.52607 1.09125 0.557282 -0.320429 0.726213 
-0.273794 -1.05181 1.09124 -0.518471 -0.320433 0.754431 
-0.861573 -1.05181 0.28223 -0.877725 -0.320431 0.259957 
-0.59871 -0.52607 -0.526787 -0.31786 -0.196454 -0.978273 
-0.273794 -1.05181 -0.526782 -0.0240007 -0.320428 -0.915083 
0.251944 -0.000332832 1.09124 0.317854 0.196449 0.978252 
-0.0109248 -0.52607 1.28223 0.0240005 0.320424 0.915072 
-0.59871 -0.52607 1.09125 -0.77842 -0.121841 0.565552 
-0.961983 -0.52607 0.591243 -0.778426 -0.121842 0.565557 
-0.961983 -0.52607 -0.0267827 -0.778426 -0.121842 -0.565557 
-0.734532 -0.97329 -0.243495 -0.964625 -0.150987 -0.700837 
-0.0109248 -0.52607 -0.71777 0.317856 0.196451 -0.978261 
0.883501 -0.973286 0.28223 1.19233 -0.150986 0 
-0.699114 -0.000334263 0.782227 -0.39662 0.641753 0.609483 
-0.287313 -0.0788506 1.13288 -0.491499 0.795274 0.755284 
-0.536655 0.324581 0.28223 -0.514304 0.832171 0.373665 
-0.905351 -0.0788549 0.28223 -0.870198 0.795266 -0.234046 
-0.699114 -0.000334263 -0.217767 -0.39662 0.641753 -0.609483 
0.839723 -0.000334561 0.28223 0.679127 0.641762 0.259956 
0.414398 0.324584 0.591241 0.635717 0.832167 0 
0.414398 0.324584 -0.0267814 0.457096 0.641756 -0.565548 
3 2 41 1 
3 0 41 39 
3 2 1 36 
3 2 36 3 
3 2 3 40 
3 0 39 4 
3 7 5 32 
3 37 38 30 
3 35 34 28 
3 8 26 21 
3 0 4 6 
3 7 32 24 
3 37 30 29 
3 35 28 27 
3 8 21 9 
3 17 10 18 
3 31 25 16 
3 15 23 14 
3 13 22 12 
3 33 20 11 
3 11 12 19 
3 11 20 12 
3 20 13 12 
3 12 14 19 
3 12 22 14 
3 22 15 14 
3 14 16 19 
3 14 23 16 
3 23 31 16 
3 16 18 19 
3 16 25 18 
3 25 17 18 
3 18 11 19 
3 18 10 11 
3 10 33 11 
3 9 20 33 
3 9 21 20 
3 21 13 20 
3 27 22 13 
3 27 28 22 
3 28 15 22 
3 29 23 15 
3 29 30 23 
3 30 31 23 
3 24 25 31 
3 24 32 25 
3 32 17 25 
3 6 10 17 
3 6 4 10 
3 4 33 10 
3 21 27 13 
3 21 26 27 
3 26 35 27 
3 28 29 15 
3 28 34 29 
3 34 37 29 
3 30 24 31 
3 30 38 24 
3 38 7 24 
3 32 6 17 
3 32 5 6 
3 5 0 6 
3 4 9 33 
3 4 39 9 
3 39 8 9 
3 40 26 8 
3 40 3 26 
3 3 35 26 
3 3 34 35 
3 3 36 34 
3 36 37 34 
3 36 38 37 
3 36 1 38 
3 1 7 38 
3 39 40 8 
3 39 41 40 
3 41 2 40 
3 1 5 7 
3 1 41 5 
3 41 0 5 
