ply
format ascii 1.0
comment VCGLIB generated
element vertex 258
property float x
property float y
property float z
property float nx
property float ny
property float nz
element face 512
property list uchar int vertex_indices
end_header
1 0.284219 -1 1.5708 1.5708 -1.5708 
1 0.284219 1 1.5708 1.5708 1.5708 
-1 0.284219 1 -1.5708 1.5708 1.5708 
-1 0.284219 -1 -1.5708 1.5708 -1.5708 
1 -0.284219 -0.999999 1.57081 -1.57081 -1.5708 
0.999999 -0.284219 1 1.57078 -1.57079 1.57081 
-1 -0.284219 1 -1.5708 -1.5708 1.5708 
-1 -0.284219 -1 -1.5708 -1.5708 -1.5708 
1 0.284219 0 3.14159 3.14159 0 
-1 0.284219 -0 -3.14159 3.14159 0 
1 -0.284219 1e-06 3.14159 -3.14159 0 
-1 -0.284219 -0 -3.14159 -3.14159 0 
1 0.284219 0.5 3.14159 3.14159 0 
1 -0.284219 0.500001 3.14159 -3.14159 0 
-1 0.284219 0.5 -3.14159 3.14159 0 
-1 -0.284219 0.5 -3.14159 -3.14159 0 
-1 0.284219 -0.5 -3.14159 3.14159 0 
-1 -0.284219 -0.5 -3.14159 -3.14159 0 
1 0.284219 -0.5 3.14159 3.14159 0 
1 -0.284219 -0.499999 3.14159 -3.14159 0 
1 0.284219 0.75 3.14159 3.14159 0 
1 -0.284219 0.750001 3.14159 -3.14159 6.36665e-06 
-1 0.284219 0.75 -3.14159 3.14159 0 
-1 -0.284219 0.75 -3.14159 -3.14159 0 
-1 0.284219 0.25 -3.14159 3.14159 0 
-1 -0.284219 0.25 -3.14159 -3.14159 0 
1 0.284219 0.25 3.14159 3.14159 0 
1 -0.284219 0.250001 3.14159 -3.14159 0 
1 0.284219 -0.25 3.14159 3.14159 0 
1 -0.284219 -0.249999 3.14159 -3.14159 0 
-1 0.284219 -0.25 -3.14159 3.14159 0 
-1 -0.284219 -0.25 -3.14159 -3.14159 0 
-1 0.284219 -0.75 -3.14159 3.14159 0 
-1 -0.284219 -0.75 -3.14159 -3.14159 0 
1 0.284219 -0.75 3.14159 3.14159 0 
1 -0.284219 -0.749999 3.14159 -3.14159 0 
0 0.284219 -1 0 3.14159 -3.14159 
0 0.284219 1 0 3.14159 3.14159 
0 -0.284219 -1 0 -3.14159 -3.14159 
-1e-06 -0.284219 1 0 -3.14159 3.14159 
-0 -0.284219 0 0 -6.28319 0 
0 0.284219 -0 0 6.28319 0 
-0 -0.284219 0.5 0 -6.28319 0 
0 0.284219 0.5 0 6.28319 0 
0 0.284219 -0.5 0 6.28319 0 
0 -0.284219 -0.5 0 -6.28319 0 
-0 -0.284219 0.75 0 -6.28319 0 
0 0.284219 0.75 0 6.28319 0 
0 0.284219 0.25 0 6.28319 0 
-0 -0.284219 0.25 0 -6.28319 0 
0 0.284219 -0.25 0 6.28319 0 
0 -0.284219 -0.25 0 -6.28319 0 
0 -0.284219 -0.75 0 -6.28319 0 
0 0.284219 -0.75 0 6.28319 0 
-0.5 0.284219 -1 0 3.14159 -3.14159 
-0.5 0.284219 1 0 3.14159 3.14159 
-0.5 -0.284219 -1 0 -3.14159 -3.14159 
-0.5 -0.284219 1 0 -3.14159 3.14159 
-0.5 0.284219 -0 0 6.28319 0 
-0.5 0.284219 0.5 0 6.28319 0 
-0.5 0.284219 -0.5 0 6.28319 0 
-0.5 0.284219 0.75 0 6.28319 0 
-0.5 0.284219 0.25 0 6.28319 0 
-0.5 0.284219 -0.25 0 6.28319 0 
-0.5 0.284219 -0.75 0 6.28319 0 
-0.5 -0.284219 0 0 -6.28319 0 
-0.5 -0.284219 0.5 0 -6.28319 0 
-0.5 -0.284219 -0.5 0 -6.28319 0 
-0.5 -0.284219 0.75 0 -6.28319 0 
-0.5 -0.284219 0.25 0 -6.28319 0 
-0.5 -0.284219 -0.25 0 -6.28319 0 
-0.5 -0.284219 -0.75 0 -6.28319 0 
0.5 -0.284219 0 0 -6.28319 0 
0.5 -0.284219 0.5 0 -6.28319 0 
0.5 -0.284219 -0.5 0 -6.28319 0 
0.5 -0.284219 0.75 0 -6.28319 0 
0.5 -0.284219 0.25 0 -6.28319 0 
0.5 -0.284219 -0.25 0 -6.28319 0 
0.5 -0.284219 -0.75 0 -6.28319 0 
0.5 0.284219 -1 0 3.14159 -3.14159 
0.5 0.284219 1 0 3.14159 3.14159 
0.5 -0.284219 -1 0 -3.14159 -3.14159 
0.499999 -0.284219 1 0 -3.14159 3.14159 
0.5 0.284219 -0 0 6.28319 0 
0.5 0.284219 0.5 0 6.28319 0 
0.5 0.284219 -0.5 0 6.28319 0 
0.5 0.284219 0.75 0 6.28319 0 
0.5 0.284219 0.25 0 6.28319 0 
0.5 0.284219 -0.25 0 6.28319 0 
0.5 0.284219 -0.75 0 6.28319 0 
-0.75 0.284219 -1 0 3.14159 -3.14159 
-0.75 0.284219 1 0 3.14159 3.14159 
-0.75 -0.284219 -1 0 -3.14159 -3.14159 
-0.75 -0.284219 1 0 -3.14159 3.14159 
-0.75 0.284219 -0 0 6.28319 0 
-0.75 0.284219 0.5 0 6.28319 0 
-0.75 0.284219 -0.5 0 6.28319 0 
-0.75 0.284219 0.75 0 6.28319 0 
-0.75 0.284219 0.25 0 6.28319 0 
-0.75 0.284219 -0.25 0 6.28319 0 
-0.75 0.284219 -0.75 0 6.28319 0 
-0.75 -0.284219 -0 0 -6.28319 0 
-0.75 -0.284219 0.5 0 -6.28319 0 
-0.75 -0.284219 -0.5 0 -6.28319 0 
-0.75 -0.284219 0.75 0 -6.28319 0 
-0.75 -0.284219 0.25 0 -6.28319 0 
-0.75 -0.284219 -0.25 0 -6.28319 0 
-0.75 -0.284219 -0.75 0 -6.28319 0 
-0.25 -0.284219 0 0 -6.28319 0 
-0.25 -0.284219 0.5 0 -6.28319 0 
-0.25 -0.284219 -0.5 0 -6.28319 0 
-0.25 -0.284219 0.75 0 -6.28319 0 
-0.25 -0.284219 0.25 0 -6.28319 0 
-0.25 -0.284219 -0.25 0 -6.28319 0 
-0.25 -0.284219 -0.75 0 -6.28319 0 
-0.25 0.284219 -1 0 3.14159 -3.14159 
-0.25 0.284219 1 0 3.14159 3.14159 
-0.25 -0.284219 -1 0 -3.14159 -3.14159 
-0.250001 -0.284219 1 0 -3.14159 3.14159 
-0.25 0.284219 -0 0 6.28319 0 
-0.25 0.284219 0.5 0 6.28319 0 
-0.25 0.284219 -0.5 0 6.28319 0 
-0.25 0.284219 0.75 0 6.28319 0 
-0.25 0.284219 0.25 0 6.28319 0 
-0.25 0.284219 -0.25 0 6.28319 0 
-0.25 0.284219 -0.75 0 6.28319 0 
0.25 0.284219 -1 0 3.14159 -3.14159 
0.25 0.284219 1 0 3.14159 3.14159 
0.25 -0.284219 -1 0 -3.14159 -3.14159 
0.249999 -0.284219 1 0 -3.14159 3.14159 
0.25 0.284219 -0 0 6.28319 0 
0.25 0.284219 0.5 0 6.28319 0 
0.25 0.284219 -0.5 0 6.28319 0 
0.25 0.284219 0.75 0 6.28319 0 
0.25 0.284219 0.25 0 6.28319 0 
0.25 0.284219 -0.25 0 6.28319 0 
0.25 0.284219 -0.75 0 6.28319 0 
0.25 -0.284219 0 0 -6.28319 0 
0.25 -0.284219 0.5 0 -6.28319 0 
0.25 -0.284219 -0.5 0 -6.28319 0 
0.25 -0.284219 0.75 0 -6.28319 0 
0.25 -0.284219 0.25 0 -6.28319 0 
0.25 -0.284219 -0.25 0 -6.28319 0 
0.25 -0.284219 -0.75 0 -6.28319 0 
0.75 -0.284219 0 0 -6.28319 0 
0.75 -0.284219 0.5 0 -6.28319 0 
0.75 -0.284219 -0.5 0 -6.28319 0 
0.75 -0.284219 0.75 0 -6.28319 0 
0.75 -0.284219 0.25 0 -6.28319 0 
0.75 -0.284219 -0.25 0 -6.28319 0 
0.75 -0.284219 -0.75 0 -6.28319 0 
0.75 0.284219 -1 0 3.14159 -3.14159 
0.75 0.284219 1 0 3.14159 3.14159 
0.75 -0.284219 -1 6.36662e-06 -3.14159 -3.14159 
0.749999 -0.284219 1 -1.97177e-06 -3.14159 3.14159 
0.75 0.284219 0 0 6.28319 0 
0.75 0.284219 0.5 0 6.28319 0 
0.75 0.284219 -0.5 0 6.28319 0 
0.75 0.284219 0.75 0 6.28319 0 
0.75 0.284219 0.25 0 6.28319 0 
0.75 0.284219 -0.25 0 6.28319 0 
0.75 0.284219 -0.75 0 6.28319 0 
1 0 -1 3.14159 0 -3.14159 
1 0 1 3.14159 0 3.14159 
-1 0 1 -3.14159 0 3.14159 
-1 0 -1 -3.14159 0 -3.14159 
-1 0 -0 -6.28319 0 0 
1 0 0 6.28319 0 0 
-1 0 0.5 -6.28319 0 0 
1 0 0.5 6.28319 0 0 
1 0 -0.5 6.28319 0 0 
-1 0 -0.5 -6.28319 0 0 
-1 0 0.75 -6.28319 0 0 
1 0 0.75 6.28319 0 0 
1 0 0.25 6.28319 0 0 
-1 0 0.25 -6.28319 0 0 
-1 0 -0.25 -6.28319 0 0 
1 0 -0.25 6.28319 0 0 
1 0 -0.75 6.28319 0 0 
-1 0 -0.75 -6.28319 0 0 
0 0 -1 0 0 -6.28319 
-0 0 1 0 0 6.28319 
-0.5 0 -1 0 0 -6.28319 
-0.5 0 1 0 0 6.28319 
0.5 0 1 0 0 6.28319 
0.5 0 -1 0 0 -6.28319 
-0.75 0 -1 0 0 -6.28319 
-0.75 0 1 0 0 6.28319 
-0.25 0 1 0 0 6.28319 
-0.25 0 -1 0 0 -6.28319 
0.25 0 1 0 0 6.28319 
0.25 0 -1 0 0 -6.28319 
0.75 0 -1 0 0 -6.28319 
0.75 0 1 0 0 6.28319 
-1 0.142109 -0 -6.28319 0 0 
1 0.142109 0 6.28319 0 0 
-1 0.142109 0.5 -6.28319 0 0 
1 0.142109 0.5 6.28319 0 0 
1 0.142109 -0.5 6.28319 0 0 
-1 0.142109 -0.5 -6.28319 0 0 
-1 0.142109 0.75 -6.28319 0 0 
1 0.142109 0.75 6.28319 0 0 
1 0.142109 0.25 6.28319 0 0 
-1 0.142109 0.25 -6.28319 0 0 
-1 0.142109 -0.25 -6.28319 0 0 
1 0.142109 -0.25 6.28319 0 0 
1 0.142109 -0.75 6.28319 0 0 
-1 0.142109 -0.75 -6.28319 0 0 
-0 0.142109 1 0 0 6.28319 
-0.5 0.142109 1 0 0 6.28319 
0.5 0.142109 1 0 0 6.28319 
-0.75 0.142109 1 0 0 6.28319 
-0.25 0.142109 1 0 0 6.28319 
0.25 0.142109 1 0 0 6.28319 
0.75 0.142109 1 0 0 6.28319 
1 0.142109 -1 3.14159 0 -3.14159 
1 0.142109 1 3.14159 0 3.14159 
-1 0.142109 1 -3.14159 0 3.14159 
-1 0.142109 -1 -3.14159 0 -3.14159 
0 0.142109 -1 0 0 -6.28319 
-0.5 0.142109 -1 0 0 -6.28319 
0.5 0.142109 -1 0 0 -6.28319 
-0.75 0.142109 -1 0 0 -6.28319 
-0.25 0.142109 -1 0 0 -6.28319 
0.25 0.142109 -1 0 0 -6.28319 
0.75 0.142109 -1 0 0 -6.28319 
1 -0.142109 -1 3.14159 -1.12002e-05 -3.14159 
1 -0.142109 1 3.1416 -4.12765e-06 3.14159 
-1 -0.142109 1 -3.14159 0 3.14159 
-1 -0.142109 -1 -3.14159 0 -3.14159 
0 -0.142109 -1 0 0 -6.28319 
-0.5 -0.142109 -1 0 0 -6.28319 
0.5 -0.142109 -1 0 0 -6.28319 
-0.75 -0.142109 -1 0 0 -6.28319 
-0.25 -0.142109 -1 0 0 -6.28319 
0.25 -0.142109 -1 0 0 -6.28319 
0.75 -0.142109 -1 4.2716e-06 -3.68555e-06 -6.28319 
-1 -0.142109 -0 -6.28319 0 0 
1 -0.142109 0 6.28319 0 0 
-1 -0.142109 0.5 -6.28319 0 0 
1 -0.142109 0.5 6.28319 0 0 
1 -0.142109 -0.5 6.28319 0 0 
-1 -0.142109 -0.5 -6.28319 0 0 
-1 -0.142109 0.75 -6.28319 0 0 
1 -0.142109 0.75 6.28319 -3.68551e-06 4.27158e-06 
1 -0.142109 0.25 6.28319 0 0 
-1 -0.142109 0.25 -6.28319 0 0 
-1 -0.142109 -0.25 -6.28319 0 0 
1 -0.142109 -0.25 6.28319 0 0 
1 -0.142109 -0.75 6.28319 0 0 
-1 -0.142109 -0.75 -6.28319 0 0 
-0 -0.142109 1 0 0 6.28319 
-0.5 -0.142109 1 0 0 6.28319 
0.5 -0.142109 1 0 0 6.28319 
-0.75 -0.142109 1 0 0 6.28319 
-0.25 -0.142109 1 0 0 6.28319 
0.25 -0.142109 1 0 0 6.28319 
0.75 -0.142109 1 0 0 6.28319 
3 91 97 2 
3 2 97 22 
3 23 104 6 
3 6 104 93 
3 21 244 5 
3 5 244 227 
3 93 254 6 
3 6 254 228 
3 33 250 7 
3 7 250 229 
3 90 222 3 
3 3 222 218 
3 25 246 11 
3 11 246 237 
3 29 248 10 
3 10 248 238 
3 31 106 11 
3 11 106 101 
3 94 99 9 
3 9 99 30 
3 23 243 15 
3 15 243 239 
3 27 245 13 
3 13 245 240 
3 25 105 15 
3 15 105 102 
3 95 98 14 
3 14 98 24 
3 96 100 16 
3 16 100 32 
3 33 107 17 
3 17 107 103 
3 35 249 19 
3 19 249 241 
3 31 247 17 
3 17 247 242 
3 6 228 23 
3 23 228 243 
3 13 240 21 
3 21 240 244 
3 15 102 23 
3 23 102 104 
3 97 95 22 
3 22 95 14 
3 98 94 24 
3 24 94 9 
3 11 101 25 
3 25 101 105 
3 10 238 27 
3 27 238 245 
3 15 239 25 
3 25 239 246 
3 11 237 31 
3 31 237 247 
3 99 96 30 
3 30 96 16 
3 17 103 31 
3 31 103 106 
3 19 241 29 
3 29 241 248 
3 4 226 35 
3 35 226 249 
3 7 92 33 
3 33 92 107 
3 100 90 32 
3 32 90 3 
3 17 242 33 
3 33 242 250 
3 136 126 53 
3 53 126 36 
3 38 128 52 
3 52 128 143 
3 45 139 51 
3 51 139 142 
3 135 132 50 
3 50 132 44 
3 40 137 49 
3 49 137 141 
3 134 130 48 
3 48 130 41 
3 133 131 47 
3 47 131 43 
3 42 138 46 
3 46 138 140 
3 52 143 45 
3 45 143 139 
3 132 136 44 
3 44 136 53 
3 131 134 43 
3 43 134 48 
3 49 141 42 
3 42 141 138 
3 130 135 41 
3 41 135 50 
3 51 142 40 
3 40 142 137 
3 126 224 36 
3 36 224 219 
3 129 256 39 
3 39 256 251 
3 46 140 39 
3 39 140 129 
3 127 133 37 
3 37 133 47 
3 125 115 64 
3 64 115 54 
3 56 117 71 
3 71 117 114 
3 67 110 70 
3 70 110 113 
3 124 121 63 
3 63 121 60 
3 65 108 69 
3 69 108 112 
3 123 119 62 
3 62 119 58 
3 122 120 61 
3 61 120 59 
3 66 109 68 
3 68 109 111 
3 71 114 67 
3 67 114 110 
3 121 125 60 
3 60 125 64 
3 120 123 59 
3 59 123 62 
3 69 112 66 
3 66 112 109 
3 119 124 58 
3 58 124 63 
3 70 113 65 
3 65 113 108 
3 115 223 54 
3 54 223 220 
3 118 255 57 
3 57 255 252 
3 68 111 57 
3 57 111 118 
3 116 122 55 
3 55 122 61 
3 152 158 80 
3 80 158 86 
3 75 147 82 
3 82 147 154 
3 154 257 82 
3 82 257 253 
3 151 225 79 
3 79 225 221 
3 77 149 72 
3 72 149 144 
3 155 160 83 
3 83 160 88 
3 76 148 73 
3 73 148 145 
3 156 159 84 
3 84 159 87 
3 157 161 85 
3 85 161 89 
3 78 150 74 
3 74 150 146 
3 73 145 75 
3 75 145 147 
3 158 156 86 
3 86 156 84 
3 159 155 87 
3 87 155 83 
3 72 144 76 
3 76 144 148 
3 160 157 88 
3 88 157 85 
3 74 146 77 
3 77 146 149 
3 81 153 78 
3 78 153 150 
3 161 151 89 
3 89 151 79 
3 64 54 100 
3 100 54 90 
3 92 56 107 
3 107 56 71 
3 103 67 106 
3 106 67 70 
3 63 60 99 
3 99 60 96 
3 101 65 105 
3 105 65 69 
3 62 58 98 
3 98 58 94 
3 61 59 97 
3 97 59 95 
3 102 66 104 
3 104 66 68 
3 107 71 103 
3 103 71 67 
3 60 64 96 
3 96 64 100 
3 59 62 95 
3 95 62 98 
3 105 69 102 
3 102 69 66 
3 58 63 94 
3 94 63 99 
3 106 70 101 
3 101 70 65 
3 54 220 90 
3 90 220 222 
3 57 252 93 
3 93 252 254 
3 104 68 93 
3 93 68 57 
3 55 61 91 
3 91 61 97 
3 37 47 116 
3 116 47 122 
3 111 46 118 
3 118 46 39 
3 39 251 118 
3 118 251 255 
3 36 219 115 
3 115 219 223 
3 113 51 108 
3 108 51 40 
3 41 50 119 
3 119 50 124 
3 112 49 109 
3 109 49 42 
3 43 48 120 
3 120 48 123 
3 44 53 121 
3 121 53 125 
3 114 52 110 
3 110 52 45 
3 109 42 111 
3 111 42 46 
3 47 43 122 
3 122 43 120 
3 48 41 123 
3 123 41 119 
3 108 40 112 
3 112 40 49 
3 50 44 124 
3 124 44 121 
3 110 45 113 
3 113 45 51 
3 117 38 114 
3 114 38 52 
3 53 36 125 
3 125 36 115 
3 80 86 127 
3 127 86 133 
3 140 75 129 
3 129 75 82 
3 82 253 129 
3 129 253 256 
3 79 221 126 
3 126 221 224 
3 142 77 137 
3 137 77 72 
3 83 88 130 
3 130 88 135 
3 141 76 138 
3 138 76 73 
3 84 87 131 
3 131 87 134 
3 85 89 132 
3 132 89 136 
3 143 78 139 
3 139 78 74 
3 138 73 140 
3 140 73 75 
3 86 84 133 
3 133 84 131 
3 87 83 134 
3 134 83 130 
3 137 72 141 
3 141 72 76 
3 88 85 135 
3 135 85 132 
3 139 74 142 
3 142 74 77 
3 128 81 143 
3 143 81 78 
3 89 79 136 
3 136 79 126 
3 34 0 161 
3 161 0 151 
3 153 4 150 
3 150 4 35 
3 146 19 149 
3 149 19 29 
3 28 18 160 
3 160 18 157 
3 144 10 148 
3 148 10 27 
3 26 8 159 
3 159 8 155 
3 20 12 158 
3 158 12 156 
3 145 13 147 
3 147 13 21 
3 150 35 146 
3 146 35 19 
3 18 34 157 
3 157 34 161 
3 12 26 156 
3 156 26 159 
3 148 27 145 
3 145 27 13 
3 8 28 155 
3 155 28 160 
3 149 29 144 
3 144 29 10 
3 0 215 151 
3 151 215 225 
3 5 227 154 
3 154 227 257 
3 147 21 154 
3 154 21 5 
3 1 20 152 
3 152 20 158 
3 163 216 193 
3 193 216 214 
3 162 226 192 
3 192 226 236 
3 185 232 191 
3 191 232 235 
3 184 210 190 
3 190 210 213 
3 180 230 189 
3 189 230 234 
3 181 208 188 
3 188 208 212 
3 183 209 187 
3 187 209 211 
3 182 231 186 
3 186 231 233 
3 192 236 185 
3 185 236 232 
3 193 214 184 
3 184 214 210 
3 188 212 183 
3 183 212 209 
3 189 234 182 
3 182 234 231 
3 190 213 181 
3 181 213 208 
3 191 235 180 
3 180 235 230 
3 171 199 179 
3 179 199 207 
3 162 215 178 
3 178 215 206 
3 170 198 177 
3 177 198 205 
3 166 194 176 
3 176 194 204 
3 168 196 175 
3 175 196 203 
3 167 195 174 
3 174 195 202 
3 169 197 173 
3 173 197 201 
3 164 217 172 
3 172 217 200 
3 176 204 171 
3 171 204 199 
3 178 206 170 
3 170 206 198 
3 174 202 169 
3 169 202 197 
3 172 200 168 
3 168 200 196 
3 177 205 167 
3 167 205 195 
3 175 203 166 
3 166 203 194 
3 186 233 165 
3 165 233 229 
3 179 207 165 
3 165 207 218 
3 187 211 164 
3 164 211 217 
3 173 201 163 
3 163 201 216 
3 201 20 216 
3 216 20 1 
3 211 91 217 
3 217 91 2 
3 207 32 218 
3 218 32 3 
3 203 24 194 
3 194 24 9 
3 205 28 195 
3 195 28 8 
3 200 22 196 
3 196 22 14 
3 202 26 197 
3 197 26 12 
3 206 34 198 
3 198 34 18 
3 204 30 199 
3 199 30 16 
3 217 2 200 
3 200 2 22 
3 197 12 201 
3 201 12 20 
3 195 8 202 
3 202 8 26 
3 196 14 203 
3 203 14 24 
3 194 9 204 
3 204 9 30 
3 198 18 205 
3 205 18 28 
3 215 0 206 
3 206 0 34 
3 199 16 207 
3 207 16 32 
3 213 127 208 
3 208 127 37 
3 212 116 209 
3 209 116 55 
3 214 152 210 
3 210 152 80 
3 209 55 211 
3 211 55 91 
3 208 37 212 
3 212 37 116 
3 210 80 213 
3 213 80 127 
3 216 1 214 
3 214 1 152 
3 215 162 225 
3 225 162 192 
3 221 185 224 
3 224 185 191 
3 219 180 223 
3 223 180 189 
3 220 182 222 
3 222 182 186 
3 225 192 221 
3 221 192 185 
3 223 189 220 
3 220 189 182 
3 224 191 219 
3 219 191 180 
3 222 186 218 
3 218 186 165 
3 233 92 229 
3 229 92 7 
3 235 128 230 
3 230 128 38 
3 234 117 231 
3 231 117 56 
3 236 153 232 
3 232 153 81 
3 231 56 233 
3 233 56 92 
3 230 38 234 
3 234 38 117 
3 232 81 235 
3 235 81 128 
3 226 4 236 
3 236 4 153 
3 227 163 257 
3 257 163 193 
3 253 184 256 
3 256 184 190 
3 251 181 255 
3 255 181 188 
3 252 183 254 
3 254 183 187 
3 257 193 253 
3 253 193 184 
3 255 188 252 
3 252 188 183 
3 256 190 251 
3 251 190 181 
3 242 171 250 
3 250 171 179 
3 226 162 249 
3 249 162 178 
3 241 170 248 
3 248 170 177 
3 237 166 247 
3 247 166 176 
3 239 168 246 
3 246 168 175 
3 238 167 245 
3 245 167 174 
3 240 169 244 
3 244 169 173 
3 228 164 243 
3 243 164 172 
3 247 176 242 
3 242 176 171 
3 249 178 241 
3 241 178 170 
3 245 174 240 
3 240 174 169 
3 243 172 239 
3 239 172 168 
3 248 177 238 
3 238 177 167 
3 246 175 237 
3 237 175 166 
3 250 179 229 
3 229 179 165 
3 254 187 228 
3 228 187 164 
3 244 173 227 
3 227 173 163 
